<?xml version="1.0" standalone="no"?>
<!DOCTYPE svg PUBLIC "-//W3C//DTD SVG 20010904//EN"
 "http://www.w3.org/TR/2001/REC-SVG-20010904/DTD/svg10.dtd">
<svg version="1.0" xmlns="http://www.w3.org/2000/svg"
 width="231.000000pt" height="300.000000pt" viewBox="0 0 231.000000 300.000000"
 preserveAspectRatio="xMidYMid meet">

<g transform="translate(0.000000,300.000000) scale(0.100000,-0.100000)"
fill="#000000" stroke="none">
<path d="M754 2093 c-285 -494 -562 -974 -616 -1067 -54 -93 -98 -170 -98
-172 0 -2 109 -4 243 -4 l243 0 374 219 375 218 3 47 3 46 -120 0 -119 0 -138
-65 c-75 -36 -138 -64 -139 -63 -6 6 501 881 509 881 6 -1 118 -190 250 -421
l241 -421 248 -1 248 0 -25 43 c-42 71 -355 617 -661 1150 -159 278 -293 506
-296 507 -4 0 -240 -404 -525 -897z"/>
<path d="M1217 1698 c-56 -96 -77 -134 -77 -140 0 -6 270 -9 270 -3 0 8 -131
235 -135 235 -2 0 -28 -42 -58 -92z"/>
<path d="M420 530 l0 -200 25 0 c19 0 25 5 25 21 0 20 0 20 31 -2 86 -61 199
7 199 121 0 114 -113 182 -199 121 l-31 -22 0 80 c0 80 0 81 -25 81 l-25 0 0
-200z m189 4 c42 -35 44 -93 5 -129 -37 -34 -78 -33 -115 4 -43 44 -33 111 21
138 37 19 55 16 89 -13z"/>
<path d="M1093 717 c-19 -8 -23 -18 -23 -59 0 -45 -2 -48 -25 -48 -21 0 -25
-5 -25 -30 0 -25 4 -30 25 -30 l25 0 0 -111 0 -110 26 3 27 3 -2 108 -2 107
35 0 c33 0 36 2 36 29 0 26 -4 30 -32 33 -32 3 -33 4 -38 59 -5 54 -6 56 -27
46z"/>
<path d="M2213 717 c-19 -8 -23 -18 -23 -59 0 -45 -2 -48 -25 -48 -21 0 -25
-5 -25 -30 0 -25 4 -30 25 -30 l25 0 0 -110 0 -110 25 0 25 0 0 110 0 110 35
0 c32 0 35 2 35 30 0 28 -3 30 -35 30 l-34 0 -3 59 c-3 56 -4 58 -25 48z"/>
<path d="M92 535 c-45 -102 -82 -190 -82 -196 0 -5 11 -9 24 -9 17 0 27 9 36
30 l12 30 93 0 93 0 12 -30 c10 -24 19 -30 41 -30 29 0 29 0 15 33 -62 144
-150 343 -156 350 -4 4 -44 -76 -88 -178z m147 -82 c1 -9 -18 -13 -64 -13 -36
0 -65 2 -65 5 0 3 14 40 32 82 l32 77 32 -70 c18 -38 33 -75 33 -81z"/>
<path d="M803 606 c-37 -17 -51 -54 -37 -95 7 -20 23 -30 69 -46 62 -21 78
-42 55 -70 -16 -19 -43 -19 -80 0 -27 14 -30 14 -41 -6 -13 -25 -4 -33 52 -49
79 -22 151 34 133 104 -8 32 -36 52 -87 61 -43 8 -65 36 -42 55 8 7 26 10 40
8 28 -6 54 17 39 32 -17 17 -69 20 -101 6z"/>
<path d="M1274 607 c-2 -7 -3 -71 -2 -143 l3 -129 28 -3 27 -3 0 93 c0 51 4
98 8 104 11 16 48 34 71 34 17 0 21 6 21 31 0 29 -1 30 -32 24 -18 -4 -37 -11
-42 -16 -15 -14 -26 -11 -26 6 0 19 -49 20 -56 2z"/>
<path d="M1586 610 c-58 -18 -96 -73 -96 -140 0 -116 106 -186 198 -130 39 24
42 24 42 5 0 -9 9 -15 25 -15 l25 0 0 135 0 135 -25 0 c-16 0 -25 -6 -25 -15
0 -20 -5 -19 -38 5 -34 24 -69 31 -106 20z m98 -71 c39 -31 49 -63 32 -104
-25 -59 -97 -75 -141 -30 -55 54 -13 151 66 154 9 1 28 -9 43 -20z"/>
<path d="M1946 610 c-130 -41 -126 -235 6 -271 43 -11 108 3 108 24 -1 24 -26
46 -41 36 -23 -15 -55 -10 -83 12 -21 16 -26 29 -26 64 0 56 37 90 87 82 29
-5 34 -3 39 19 4 14 4 27 2 29 -10 11 -65 13 -92 5z"/>
<path d="M1844 125 c0 -50 1 -71 3 -48 2 23 2 64 0 90 -2 26 -3 8 -3 -42z"/>
<path d="M1391 183 c0 -13 -7 -23 -13 -23 -10 0 -10 -2 -1 -8 6 -4 13 -30 15
-57 3 -44 6 -50 26 -51 18 -1 19 -1 2 3 -17 4 -20 12 -20 53 0 42 3 49 23 53
22 4 22 4 0 6 -14 1 -23 9 -26 24 l-4 22 -2 -22z"/>
<path d="M50 140 c-52 -52 18 -130 80 -90 10 7 4 8 -20 4 -28 -5 -39 -1 -55
16 -18 20 -18 23 -4 48 13 22 22 27 53 26 25 -1 33 2 25 7 -24 15 -58 10 -79
-11z"/>
<path d="M207 142 c-21 -23 -22 -66 -1 -86 34 -35 104 -8 104 40 0 55 -68 85
-103 46z m77 -8 c19 -18 20 -38 6 -65 -12 -22 -59 -26 -78 -7 -15 15 -15 61 0
76 17 17 54 15 72 -4z"/>
<path d="M372 95 l1 -60 6 49 c11 91 72 91 80 0 l5 -49 5 55 c6 53 7 55 36 55
29 0 30 -2 36 -55 l6 -55 1 50 c1 29 -3 56 -10 63 -15 15 -55 16 -63 2 -5 -8
-11 -8 -20 0 -7 5 -29 9 -49 8 l-36 -3 2 -60z"/>
<path d="M622 80 c1 -47 3 -70 5 -52 4 27 7 31 18 22 23 -19 68 -8 85 23 13
24 13 30 0 55 -17 29 -64 42 -83 23 -8 -8 -3 -10 19 -5 22 4 36 1 47 -11 33
-32 13 -85 -32 -85 -37 0 -55 22 -48 58 3 15 2 34 -4 42 -5 10 -8 -15 -7 -70z"/>
<path d="M807 153 c-3 -5 11 -8 31 -8 27 0 37 -5 40 -17 3 -14 -4 -18 -31 -18
-76 0 -74 -64 2 -66 l41 -1 0 46 c0 26 -5 52 -12 59 -13 13 -64 16 -71 5z m71
-75 c-2 -17 -11 -24 -32 -26 -33 -4 -51 10 -43 32 4 11 19 16 42 16 32 0 36
-3 33 -22z"/>
<path d="M962 95 c1 -53 2 -55 5 -15 5 55 18 72 52 68 24 -3 27 -8 32 -58 l6
-55 1 51 c2 61 -10 75 -62 72 l-36 -3 2 -60z"/>
<path d="M1140 100 c32 -64 32 -76 -4 -90 -21 -9 -21 -9 2 -9 19 -1 29 12 58
75 19 42 33 79 30 81 -5 5 -36 -62 -36 -78 0 -4 -5 -11 -10 -14 -6 -4 -20 16
-32 44 -11 28 -25 51 -29 51 -5 0 4 -27 21 -60z"/>
<path d="M1540 151 c49 -9 55 -41 7 -41 -76 0 -74 -64 2 -66 l41 -1 0 46 c0
55 -13 71 -54 70 -31 -2 -31 -2 4 -8z m38 -73 c-2 -17 -11 -24 -32 -26 -33 -4
-51 10 -43 32 4 11 19 16 42 16 32 0 36 -3 33 -22z"/>
<path d="M1663 134 c-15 -24 -15 -29 -2 -53 17 -30 61 -40 86 -20 13 11 14 10
11 -10 -5 -35 -31 -48 -68 -34 -16 6 -30 7 -30 3 0 -5 16 -12 35 -16 56 -10
75 13 75 95 0 41 -4 61 -9 52 -6 -9 -11 -10 -15 -2 -14 22 -65 12 -83 -15z
m85 4 c29 -29 7 -78 -34 -78 -42 0 -63 59 -30 82 17 12 51 9 64 -4z"/>
<path d="M1933 100 c0 -36 2 -50 4 -32 2 17 2 47 0 65 -2 17 -4 3 -4 -33z"/>
<path d="M2012 96 l2 -61 3 52 c4 46 7 54 29 59 36 9 54 -12 56 -65 l1 -46 4
42 c6 63 -9 84 -58 81 l-39 -2 2 -60z"/>
<path d="M2186 144 c-9 -8 -16 -28 -16 -44 0 -16 7 -36 16 -44 16 -17 69 -22
78 -8 3 5 -8 6 -25 4 -28 -4 -59 11 -59 29 0 5 17 9 38 9 56 0 69 12 48 44
-19 30 -56 34 -80 10z m73 -13 c14 -25 5 -31 -41 -31 -24 0 -38 5 -38 13 0 37
62 51 79 18z"/>
</g>
</svg>
