<svg version="1.1" xmlns="http://www.w3.org/2000/svg" xmlns:xlink="http://www.w3.org/1999/xlink" width="2400.000000pt" height="2402.000000pt" viewBox="0,0,255.78125,256"><g fill="#ffffff" fill-rule="nonzero" stroke="none" stroke-width="1" stroke-linecap="butt" stroke-linejoin="miter" stroke-miterlimit="10" stroke-dasharray="" stroke-dashoffset="0" font-family="none" font-weight="none" font-size="none" text-anchor="none" style="mix-blend-mode: normal"><g transform="translate(0.00253,-0.01891) scale(0.10658,0.10658)"><g transform="translate(0,2402) scale(0.1,-0.1)"><path d="M12108,23981c-234,-53 -407,-133 -654,-301c-154,-105 -257,-208 -403,-400c-232,-306 -324,-455 -527,-861c-159,-319 -216,-446 -386,-864l-198,-490l-156,-523c-112,-379 -195,-685 -300,-1110c-79,-323 -146,-593 -149,-600c-3,-8 -32,5 -87,42c-183,120 -1532,889 -1818,1036c-380,196 -795,372 -1281,544c-605,214 -1005,296 -1441,296c-416,0 -584,-37 -871,-192c-166,-90 -169,-93 -265,-197c-54,-58 -129,-150 -166,-205c-61,-88 -74,-114 -117,-250c-47,-146 -48,-156 -56,-318c-7,-155 -6,-186 27,-466c19,-165 39,-304 43,-309c5,-4 6,9 2,30c-4,21 -8,206 -9,410l-1,372l39,125c22,73 67,181 107,260c64,129 73,140 176,242c59,59 151,139 203,177c80,58 118,78 234,120c119,44 157,53 273,66c276,31 647,12 908,-46c342,-76 618,-173 1405,-496c47,-19 315,-149 595,-290c481,-241 541,-274 1050,-581c627,-378 985,-611 985,-643c0,-11 -99,-525 -221,-1142l-221,-1122l-34,-354c-19,-195 -36,-356 -38,-358c-2,-2 -381,-33 -842,-68l-839,-64l-695,-105c-382,-58 -757,-120 -832,-138c-76,-17 -139,-30 -141,-27c-2,2 -114,164 -249,359l-245,355l-18,220l-18,220l-87,205c-77,185 -96,221 -197,368c-102,150 -121,171 -242,278c-123,109 -140,120 -259,174l-127,57l-116,-12c-105,-12 -124,-17 -207,-59l-92,-46l-59,-118l-59,-117l-7,-150c-7,-136 -5,-165 20,-320c27,-164 30,-174 97,-320c38,-82 108,-217 155,-298c81,-140 91,-153 204,-259c71,-66 161,-139 222,-178l102,-66l181,-235c99,-129 183,-239 187,-246c5,-8 -47,-24 -170,-53c-261,-62 -1082,-295 -1198,-339c-893,-346 -980,-382 -1420,-584c-456,-210 -463,-213 -733,-384c-245,-155 -293,-190 -457,-333c-159,-139 -195,-176 -279,-289c-126,-168 -216,-333 -273,-496c-42,-119 -46,-142 -55,-273l-9,-142l37,-167c56,-250 148,-444 312,-658c183,-238 313,-348 724,-613c164,-106 232,-142 564,-297c207,-97 467,-211 578,-255c111,-43 329,-128 486,-190c264,-103 323,-122 795,-251c289,-80 767,-200 1104,-279c327,-77 595,-141 596,-142c1,-2 -139,-239 -312,-528c-172,-289 -429,-735 -569,-992c-254,-465 -257,-471 -456,-940c-167,-395 -222,-539 -335,-873c-147,-436 -196,-634 -250,-995c-22,-150 -25,-196 -20,-320c11,-277 60,-512 146,-708c64,-146 211,-352 334,-467c91,-87 115,-103 223,-154c145,-70 375,-129 599,-156c139,-17 142,-17 385,9c200,21 301,38 550,91l305,66l460,180c406,159 521,210 975,427c393,188 615,302 935,480c231,129 486,276 567,328c81,52 153,97 161,99c10,4 24,-95 65,-432l52,-438l-24,-116c-20,-93 -25,-149 -26,-285c-2,-167 -2,-171 38,-329c22,-88 67,-232 99,-320c56,-153 63,-166 158,-294c74,-100 127,-159 212,-236l114,-102l125,-41l125,-40l90,30c72,24 107,44 177,97c48,37 92,74 99,82c6,8 32,70 58,138c45,122 46,126 57,305l11,181l-38,185c-34,167 -46,205 -123,390l-85,205l-137,170l-137,170l-102,540c-56,297 -101,554 -101,571c0,28 10,37 119,106c103,66 1140,848 1276,963c28,23 276,246 553,495c277,248 508,449 515,447c7,-3 180,-144 385,-315l373,-309l970,-653c741,-499 969,-657 969,-672c0,-60 -110,-560 -246,-1113l-154,-630l-179,-535c-169,-506 -189,-559 -369,-975c-288,-665 -449,-957 -693,-1255c-151,-184 -254,-286 -409,-409c-93,-73 -140,-102 -245,-149c-112,-51 -150,-63 -275,-86c-104,-19 -178,-26 -264,-26c-118,0 -120,0 -260,51c-138,51 -266,113 -356,173c-58,38 -305,281 -468,458c-69,76 -127,136 -129,134c-2,-2 84,-116 192,-252c147,-186 226,-277 313,-358c112,-104 123,-112 267,-181c175,-83 282,-110 512,-125l139,-9l179,53c318,94 404,147 728,450c310,290 552,658 852,1295c370,784 506,1175 836,2398c121,450 226,849 234,886c7,38 15,71 18,74c3,3 255,-145 559,-329c366,-222 703,-417 998,-576c438,-237 453,-244 925,-443c397,-166 549,-224 880,-335c361,-122 420,-139 606,-174c433,-82 709,-99 976,-60c160,24 231,43 403,111c98,38 157,70 274,148c136,91 155,107 232,203c176,215 274,468 308,789c15,138 15,160 -5,393c-20,241 -22,256 -95,559l-75,312l-176,455c-163,423 -193,492 -431,985c-296,613 -623,1211 -883,1618c-87,136 -157,247 -154,247c2,0 186,27 409,60l406,61l129,-31c112,-26 147,-30 272,-30c141,0 147,1 319,49c96,27 244,76 329,110c146,59 161,67 295,171c107,84 163,136 232,217c85,102 93,115 132,224c23,64 42,123 42,132c0,8 -14,53 -32,99c-23,62 -51,108 -109,184l-79,100l-137,42c-133,40 -144,42 -313,47l-175,6l-191,-40c-182,-38 -200,-44 -381,-127l-191,-87l-168,-140l-168,-141l-530,-108c-498,-101 -532,-107 -544,-90c-7,9 -217,283 -466,607l-454,590l-546,613c-362,406 -544,618 -539,626c5,7 251,327 549,712c510,658 566,735 969,1324c235,344 431,629 436,634c14,16 340,-50 965,-194c575,-134 640,-151 1164,-312l555,-170l440,-185c691,-291 990,-450 1288,-682c167,-131 292,-253 414,-406c63,-79 92,-128 141,-235c55,-121 64,-151 87,-283c18,-106 25,-184 25,-276c0,-127 -1,-131 -44,-254c-67,-186 -131,-306 -224,-417c-88,-104 -248,-271 -414,-428c-59,-56 -104,-102 -100,-102c4,0 115,89 247,198c310,255 407,365 519,582c67,131 76,156 95,260c15,83 21,155 21,262c0,143 -1,154 -45,318c-40,153 -51,181 -112,287c-179,315 -577,673 -1079,971c-289,171 -814,411 -1237,566c-536,195 -869,293 -1754,512c-442,110 -803,203 -803,207c0,5 187,328 416,719c344,587 441,761 560,1005c243,497 395,859 537,1273c269,784 341,1218 296,1781c-15,196 -69,355 -191,564c-82,141 -98,163 -189,248c-54,52 -145,126 -202,164c-90,62 -120,76 -257,121l-155,52h-195c-149,0 -260,-6 -468,-29c-150,-16 -276,-32 -280,-36c-4,-4 22,-5 58,-2c161,15 616,20 705,7c131,-19 293,-70 435,-138c122,-58 128,-63 242,-178c64,-66 147,-160 185,-210c62,-81 75,-108 120,-235c44,-124 53,-164 67,-287c30,-263 14,-545 -50,-882c-42,-222 -158,-568 -355,-1061c-160,-401 -203,-498 -426,-950c-241,-488 -259,-521 -557,-1014c-170,-281 -363,-592 -429,-693c-112,-171 -122,-183 -146,-177c-14,3 -354,59 -756,124c-681,112 -784,126 -1535,212c-443,50 -806,93 -807,93c-2,1 -19,285 -38,632l-36,629l-95,720c-83,628 -103,756 -156,1003c-34,161 -57,287 -52,292c5,4 171,119 369,255l360,248l225,22l225,23l188,80c194,83 212,93 409,224c103,68 131,94 235,212c109,125 122,144 172,256l54,121l-11,118c-11,107 -16,127 -56,212l-45,95l-123,56l-123,57l-150,7c-128,6 -175,3 -315,-16l-165,-23l-155,-78c-85,-42 -221,-115 -302,-161c-140,-80 -153,-90 -254,-199c-59,-63 -137,-161 -175,-219l-68,-105l-238,-186c-190,-149 -239,-184 -245,-170c-3,9 -64,230 -134,491c-118,438 -142,517 -320,1021c-181,512 -206,574 -396,1001c-203,453 -205,456 -376,731c-145,233 -196,306 -329,467c-141,170 -171,201 -283,287c-268,207 -520,324 -730,338c-52,3 -115,8 -140,10c-29,3 -104,-9 -212,-34zM12675,23580c232,-78 434,-242 685,-555c123,-154 265,-367 328,-490c16,-33 112,-235 212,-450l182,-390l251,-710l250,-710l102,-407l103,-408l-352,-257c-518,-380 -1205,-946 -1978,-1630c-346,-307 -634,-558 -639,-558c-4,0 -275,205 -601,456c-439,337 -698,528 -998,734c-223,153 -407,280 -410,283c-3,2 24,173 59,380c46,272 99,532 192,942l128,565l229,695l229,695l200,400c172,344 217,425 319,575c264,389 448,582 702,738l133,82l142,29c111,23 171,29 277,30c133,1 138,0 255,-39zM16750,20542c73,-36 65,-101 -20,-183c-113,-108 -346,-200 -515,-201c-99,-1 -142,13 -170,56c-25,37 -9,74 60,141c62,61 175,128 270,160c139,47 311,60 375,27zM14998,18618c7,-29 68,-382 137,-785l125,-732l57,-751c31,-413 54,-753 51,-755c-3,-3 -66,1 -139,10c-108,12 -1770,125 -1845,125c-13,0 -160,119 -385,311c-200,172 -417,357 -481,412c-65,55 -118,102 -118,106c0,3 190,170 421,371c316,273 639,538 1288,1052c476,378 869,687 872,688c3,0 11,-24 17,-52zM10087,18031c211,-142 483,-342 930,-683c347,-266 631,-486 630,-490c-1,-4 -222,-211 -492,-459c-269,-248 -550,-508 -623,-577l-133,-125l-467,-33c-257,-18 -476,-33 -487,-34c-20,0 -20,7 31,488c34,313 94,776 168,1300c64,447 116,815 116,818c0,13 37,-11 327,-205zM3736,17084c49,-23 152,-138 202,-226c23,-42 57,-115 74,-164c26,-75 31,-105 32,-186c1,-90 -1,-98 -24,-123c-20,-22 -31,-26 -58,-21c-147,23 -362,381 -362,602c0,118 48,160 136,118zM12620,16077c206,-176 377,-322 380,-324c7,-7 -1328,8 -1427,16l-83,6l366,317c215,187 371,315 378,311c6,-4 180,-151 386,-326zM13138,15513l153,-6l117,-101c64,-55 333,-303 597,-550c408,-381 555,-527 977,-970l498,-521v-115c0,-63 7,-374 15,-690c13,-539 13,-609 -5,-1105c-11,-291 -20,-540 -20,-552c0,-30 -56,-93 -589,-663c-297,-319 -539,-566 -733,-751l-289,-276l-784,-8c-763,-7 -2183,2 -2276,14c-44,6 -61,20 -430,366c-211,198 -570,542 -797,764l-412,404l5,501c6,484 38,1832 51,2084l6,123l396,422c417,445 1559,1616 1577,1618c5,0 136,7 290,14c283,14 1314,13 1653,-2zM14409,15445c666,-41 882,-57 952,-71c22,-4 27,-12 32,-47c7,-50 69,-1555 65,-1568c-2,-5 -84,79 -182,188c-141,156 -313,323 -810,787c-347,324 -667,620 -711,659c-118,102 -112,97 -91,97c10,0 345,-20 745,-45zM10124,15398c-27,-29 -220,-237 -429,-462c-208,-225 -381,-404 -382,-399c-4,11 85,865 91,870c5,5 578,40 680,42l89,1zM8736,15323c-23,-182 -98,-1042 -112,-1291l-18,-302l-345,-388c-189,-213 -423,-481 -519,-597c-95,-115 -177,-211 -181,-213c-20,-7 -643,739 -1274,1528c-657,820 -707,885 -685,892c12,4 304,61 648,127l625,121l900,84c495,46 915,84 933,85l34,1zM16490,15245c814,-93 834,-96 1450,-205c344,-61 628,-111 632,-113c4,-1 -158,-248 -360,-548c-340,-505 -408,-600 -925,-1277c-307,-402 -562,-734 -567,-737c-4,-3 -44,34 -87,83c-44,48 -232,256 -418,462c-186,206 -377,417 -423,468l-85,92l-48,868c-26,477 -50,900 -53,940l-6,73l33,-6c17,-3 403,-48 857,-100zM5045,14398c360,-488 960,-1219 1552,-1890c266,-302 483,-552 483,-556c0,-4 -98,-124 -216,-267c-210,-252 -231,-282 -786,-1110c-314,-467 -572,-851 -573,-852c-1,-2 -168,21 -371,51c-278,41 -502,82 -904,166l-535,112l-703,225l-702,224l-398,186c-457,215 -636,319 -912,535c-190,148 -295,259 -434,462l-89,128l-33,182c-47,256 -47,352 3,501c80,241 266,479 553,708c248,198 396,285 890,524c459,223 514,245 1735,695c88,33 1132,324 1170,327c6,0 127,-158 270,-351zM16184,12607l396,-428l-19,-27c-10,-15 -205,-243 -433,-507c-376,-437 -413,-477 -416,-450c-1,17 8,332 22,700c22,613 23,689 11,890c-8,121 -14,240 -14,265l-1,45l29,-30c16,-17 207,-223 425,-458zM8526,12407c-8,-139 -21,-408 -28,-600c-6,-191 -15,-346 -19,-345c-13,6 -489,562 -487,569c2,5 125,157 273,339c206,253 271,327 273,310c2,-11 -3,-134 -12,-273zM17356,11290l598,-695l313,-440c172,-241 310,-441 308,-443c-2,-2 -439,-62 -972,-133c-792,-106 -1059,-137 -1468,-174c-275,-25 -511,-45 -525,-45h-26l56,723l55,722l485,570c267,314 498,587 514,608c28,37 30,37 46,20c10,-10 287,-331 616,-713zM8031,10916l423,-460l23,-534c13,-295 21,-537 18,-540c-2,-3 -224,14 -492,37c-338,28 -698,67 -1173,127c-377,47 -691,87 -697,89c-22,7 769,1065 1092,1461l298,366l42,-44c23,-24 233,-250 466,-502zM15405,9920c-25,-316 -49,-577 -53,-580c-9,-8 -1083,-102 -1089,-96c-3,2 255,280 574,617c318,336 584,621 592,632c8,12 16,16 18,11c2,-6 -17,-269 -42,-584zM20875,10179c53,-14 75,-36 75,-71c0,-74 -94,-164 -255,-243c-133,-66 -244,-98 -345,-99c-89,-1 -134,15 -150,53c-18,45 -2,81 69,151c147,144 455,250 606,209zM9473,9510c140,-129 253,-236 253,-237c-4,-5 -502,40 -507,46c-4,3 -12,83 -18,176c-7,94 -14,195 -18,225c-6,53 -5,54 15,40c11,-8 135,-121 275,-250zM6805,8951l1000,-180l362,-27l362,-28l6,-61c3,-33 28,-418 55,-855c58,-907 146,-1835 226,-2383c25,-170 44,-310 42,-312c-2,-2 -217,-130 -478,-285c-395,-235 -528,-308 -790,-435c-173,-84 -475,-230 -670,-325c-343,-167 -370,-178 -815,-337c-559,-200 -722,-245 -983,-273c-108,-12 -257,-20 -353,-20c-150,0 -180,3 -304,31c-93,21 -174,47 -249,81c-98,43 -120,58 -189,126c-53,52 -110,124 -175,222c-93,141 -96,149 -134,285c-29,105 -42,179 -53,298c-15,155 -14,163 10,360c41,341 87,525 247,1007l141,425l324,650l325,650l301,480c207,331 369,575 521,787c203,283 223,308 246,303c14,-3 475,-86 1025,-184zM19380,8440l336,-565l336,-690l337,-690l155,-441c181,-514 222,-668 262,-989c30,-248 27,-418 -11,-647c-22,-128 -28,-145 -81,-244c-85,-159 -164,-241 -350,-365l-151,-100l-149,-35c-223,-53 -378,-61 -641,-34c-112,11 -295,38 -407,60c-182,36 -247,55 -612,179l-409,139l-657,325l-657,325l-503,321c-608,387 -1095,732 -1090,772c2,13 43,247 92,519c70,395 113,681 211,1415c67,506 125,923 128,927c3,3 368,36 811,72c953,78 1820,175 2333,260c177,30 335,53 351,53c28,-2 48,-33 366,-567zM9545,8635c110,-8 368,-22 574,-29c343,-13 375,-16 395,-34c393,-352 883,-780 1094,-955c150,-124 272,-230 271,-234c-2,-4 -285,-251 -630,-548l-626,-540l-527,-374c-290,-205 -529,-372 -531,-370c-2,3 -51,428 -109,947c-86,763 -113,1048 -146,1495c-22,304 -42,578 -45,610l-6,58l43,-5c24,-3 133,-13 243,-21zM15290,8604c0,-4 -59,-446 -130,-983c-111,-830 -141,-1030 -201,-1336c-38,-198 -73,-368 -77,-379c-7,-15 -54,17 -342,231c-905,674 -1079,807 -1515,1162c-258,211 -471,385 -473,386c-2,2 198,186 445,409l447,406h51c51,0 740,42 1385,84c434,28 410,27 410,20zM12509,8525c327,-8 596,-16 597,-18c3,-3 -714,-670 -725,-675c-6,-2 -838,671 -871,705c-13,14 6,15 195,9c116,-4 477,-13 804,-21zM9329,3771c97,-63 189,-355 178,-561c-7,-143 -41,-210 -105,-210c-128,0 -273,397 -233,638c23,142 77,187 160,133z"></path><path d="M11910,13760c-588,-82 -1074,-432 -1325,-955c-129,-269 -181,-541 -163,-855c18,-320 143,-644 353,-915c83,-107 249,-264 365,-347c180,-128 416,-229 645,-278c130,-28 393,-38 532,-20c782,98 1392,717 1483,1505c53,467 -111,964 -439,1325c-239,264 -571,450 -926,520c-124,25 -413,35 -525,20zM11489,13040c63,-11 145,-31 182,-46l69,-27v-56c0,-96 -211,-803 -283,-946c-58,-117 -70,-130 -127,-143c-28,-7 -100,-12 -159,-12c-92,0 -119,4 -193,29c-51,17 -109,46 -141,70c-49,36 -55,44 -62,88c-16,105 -6,269 26,466c18,106 26,132 81,240c80,162 177,296 237,329c41,23 58,26 151,27c64,0 149,-7 219,-19zM13320,11902c0,-102 -1,-105 -37,-164c-20,-32 -59,-77 -87,-100l-51,-40l-6,108c-4,60 -14,138 -22,174l-16,65l37,57c20,31 55,70 76,88l40,31l33,-58c31,-55 33,-63 33,-161z"></path></g></g></g></svg>