<svg version="1.1" xmlns="http://www.w3.org/2000/svg" xmlns:xlink="http://www.w3.org/1999/xlink" width="980.000000pt" height="980.000000pt" viewBox="0,0,256,256"><g fill="#5c7cfa" fill-rule="nonzero" stroke="none" stroke-width="1" stroke-linecap="butt" stroke-linejoin="miter" stroke-miterlimit="10" stroke-dasharray="" stroke-dashoffset="0" font-family="none" font-weight="none" font-size="none" text-anchor="none" style="mix-blend-mode: normal"><g transform="scale(0.26122,0.26122)"><g transform="translate(0,980) scale(0.1,-0.1)"><path d="M3952,6705c-333,-85 -602,-169 -703,-220c-41,-21 -56,-39 -126,-152c-351,-563 -552,-1102 -634,-1707c-24,-173 -36,-605 -24,-831l7,-136l104,-72c237,-163 522,-320 769,-420c119,-49 340,-127 359,-127c21,0 256,374 256,409c0,6 -24,22 -52,34c-107,43 -329,159 -335,174c-6,16 60,82 83,83c6,0 74,-25 150,-56c367,-147 689,-209 1094,-209c405,0 727,62 1094,209c76,31 144,56 150,56c23,-1 89,-67 83,-83c-6,-15 -228,-131 -334,-174c-29,-12 -53,-28 -53,-34c0,-35 235,-409 256,-409c19,0 240,78 359,127c247,100 532,257 769,420l104,72l7,136c12,225 0,658 -24,830c-83,609 -282,1144 -634,1708c-90,145 -94,148 -273,210c-197,69 -741,217 -795,217c-14,0 -35,-33 -85,-131l-65,-131l-32,6c-133,24 -252,31 -527,31c-275,0 -394,-7 -527,-31l-32,-6l-65,131c-56,110 -70,131 -89,131c-12,-1 -118,-25 -235,-55zM4213,5190c188,-58 317,-251 317,-473c0,-202 -102,-377 -266,-458c-65,-32 -75,-34 -174,-34c-102,0 -109,1 -182,38c-130,64 -220,186 -253,342c-18,88 -18,132 0,220c38,180 159,320 320,371c61,19 164,17 238,-6zM5883,5172c131,-61 229,-191 262,-347c18,-88 18,-132 0,-220c-33,-156 -123,-278 -253,-342c-73,-37 -80,-38 -182,-38c-99,0 -109,2 -174,34c-320,157 -361,647 -73,867c118,91 286,109 420,46z"></path></g></g></g></svg>