<svg version="1.1" xmlns="http://www.w3.org/2000/svg" xmlns:xlink="http://www.w3.org/1999/xlink" width="512.000000pt" height="512.000000pt" viewBox="0,0,256,256"><g fill="#b4d82d" fill-rule="nonzero" stroke="none" stroke-width="1" stroke-linecap="butt" stroke-linejoin="miter" stroke-miterlimit="10" stroke-dasharray="" stroke-dashoffset="0" font-family="none" font-weight="none" font-size="none" text-anchor="none" style="mix-blend-mode: normal"><g transform="translate(0.01784,-0.02249) scale(0.5,0.5)"><g transform="translate(0,512) scale(0.1,-0.1)"><path d="M4810,4655c-111,-50 -164,-185 -116,-293l18,-40l-338,-485l-338,-485l-66,1c-49,0 -76,-5 -108,-22l-43,-22l-282,204l-282,204l-7,65c-8,80 -25,115 -78,161c-146,124 -358,24 -363,-172l-2,-60l-310,-241c-211,-164 -314,-238 -325,-234c-38,16 -112,16 -154,0c-57,-22 -121,-91 -136,-148c-7,-23 -14,-48 -15,-54c-2,-6 -127,-77 -278,-157l-275,-147l-54,25c-97,45 -204,25 -267,-51l-28,-35l-258,40c-142,23 -259,42 -260,43c-1,2 -12,25 -25,51c-68,144 -265,166 -368,42c-118,-144 -16,-360 168,-358c70,0 118,21 164,70l37,38l259,-39l259,-40l16,-42c19,-51 78,-107 130,-124c22,-7 62,-10 95,-7c105,9 185,89 199,199l6,50l269,144l268,143l35,-26c163,-124 394,22 351,223c-6,25 -8,47 -6,48c1,2 137,107 300,233l298,231l52,-20c59,-22 116,-20 169,8c17,8 36,13 43,11c7,-3 139,-96 292,-207l279,-202l6,-56c7,-70 26,-108 78,-155c97,-88 255,-66 328,45c34,51 44,157 20,205l-16,29l342,492l342,491h56c123,2 215,87 226,208c7,80 -31,154 -101,197c-59,37 -150,46 -206,21z"></path><path d="M4761,3594l-21,-27v-1534v-1534l25,-24c23,-24 31,-25 133,-25c101,0 110,2 130,23l22,23v1540v1541l-23,21c-21,20 -34,22 -134,22c-109,0 -112,-1 -132,-26z"></path><path d="M2902,3230c-12,-11 -24,-31 -27,-43c-3,-12 -4,-624 -3,-1360l3,-1339l24,-19c20,-16 40,-19 130,-19c99,0 109,2 129,23l22,23v1356v1357l-26,20c-23,18 -41,21 -128,21c-89,0 -105,-3 -124,-20z"></path><path d="M1984,2586c-17,-7 -34,-21 -38,-31c-3,-9 -6,-477 -6,-1039v-1023l23,-21c21,-20 34,-22 129,-22c89,0 109,3 129,19l24,19l3,1025l2,1026l-24,28c-23,27 -29,28 -118,31c-63,1 -103,-2 -124,-12z"></path><path d="M3854,2586c-17,-7 -34,-21 -38,-31c-3,-9 -6,-477 -6,-1039v-1023l23,-21c21,-20 34,-22 129,-22c89,0 109,3 129,19l24,19v1031v1030l-23,23c-20,20 -34,23 -115,26c-62,1 -102,-2 -123,-12z"></path><path d="M127,1750c-59,-18 -56,7 -57,-651v-606l23,-21c21,-20 34,-22 131,-22c100,0 108,2 131,25l25,24v600v600l-24,27c-22,26 -29,28 -112,31c-49,1 -102,-2 -117,-7z"></path><path d="M1064,1753c-12,-2 -30,-13 -40,-25c-18,-19 -19,-50 -19,-630v-610l24,-19c20,-16 40,-19 130,-19c99,0 109,2 129,23l22,23v603c0,387 -4,609 -10,621c-6,11 -27,24 -48,30c-36,10 -145,12 -188,3z"></path></g></g></g></svg>